<svg id="wave" style="transform:rotate(0deg); transition: 0.3s" viewBox="0 0 1440 490" version="1.1"
    xmlns="http://www.w3.org/2000/svg">
    <defs>
        <linearGradient id="sw-gradient-0" x1="0" x2="0" y1="1" y2="0">
            <stop stop-color="rgba(186, 96, 131, 1)" offset="0%"></stop>
            <stop stop-color="rgba(227, 167, 135, 1)" offset="100%"></stop>
        </linearGradient>
    </defs>
    <path style="transform:translate(0, 0px); opacity:1" fill="url(#sw-gradient-0)"
        d="M0,147L80,179.7C160,212,320,278,480,302.2C640,327,800,310,960,285.8C1120,261,1280,229,1440,212.3C1600,196,1760,196,1920,212.3C2080,229,2240,261,2400,294C2560,327,2720,359,2880,310.3C3040,261,3200,131,3360,98C3520,65,3680,131,3840,130.7C4000,131,4160,65,4320,32.7C4480,0,4640,0,4800,8.2C4960,16,5120,33,5280,81.7C5440,131,5600,212,5760,245C5920,278,6080,261,6240,269.5C6400,278,6560,310,6720,326.7C6880,343,7040,343,7200,310.3C7360,278,7520,212,7680,187.8C7840,163,8000,180,8160,228.7C8320,278,8480,359,8640,351.2C8800,343,8960,245,9120,228.7C9280,212,9440,278,9600,310.3C9760,343,9920,343,10080,351.2C10240,359,10400,376,10560,392C10720,408,10880,425,11040,416.5C11200,408,11360,376,11440,359.3L11520,343L11520,490L11440,490C11360,490,11200,490,11040,490C10880,490,10720,490,10560,490C10400,490,10240,490,10080,490C9920,490,9760,490,9600,490C9440,490,9280,490,9120,490C8960,490,8800,490,8640,490C8480,490,8320,490,8160,490C8000,490,7840,490,7680,490C7520,490,7360,490,7200,490C7040,490,6880,490,6720,490C6560,490,6400,490,6240,490C6080,490,5920,490,5760,490C5600,490,5440,490,5280,490C5120,490,4960,490,4800,490C4640,490,4480,490,4320,490C4160,490,4000,490,3840,490C3680,490,3520,490,3360,490C3200,490,3040,490,2880,490C2720,490,2560,490,2400,490C2240,490,2080,490,1920,490C1760,490,1600,490,1440,490C1280,490,1120,490,960,490C800,490,640,490,480,490C320,490,160,490,80,490L0,490Z">
    </path>
    <defs>
        <linearGradient id="sw-gradient-1" x1="0" x2="0" y1="1" y2="0">
            <stop stop-color="rgba(63, 214, 231, 0.61)" offset="0%"></stop>
            <stop stop-color="rgba(28, 68, 101, 0.58)" offset="100%"></stop>
        </linearGradient>
    </defs>
    <path style="transform:translate(0, 50px); opacity:0.9" fill="url(#sw-gradient-1)"
        d="M0,392L80,383.8C160,376,320,359,480,334.8C640,310,800,278,960,228.7C1120,180,1280,114,1440,147C1600,180,1760,310,1920,375.7C2080,441,2240,441,2400,441C2560,441,2720,441,2880,432.8C3040,425,3200,408,3360,383.8C3520,359,3680,327,3840,326.7C4000,327,4160,359,4320,318.5C4480,278,4640,163,4800,147C4960,131,5120,212,5280,212.3C5440,212,5600,131,5760,114.3C5920,98,6080,147,6240,163.3C6400,180,6560,163,6720,138.8C6880,114,7040,82,7200,89.8C7360,98,7520,147,7680,204.2C7840,261,8000,327,8160,343C8320,359,8480,327,8640,326.7C8800,327,8960,359,9120,367.5C9280,376,9440,359,9600,318.5C9760,278,9920,212,10080,163.3C10240,114,10400,82,10560,98C10720,114,10880,180,11040,187.8C11200,196,11360,147,11440,122.5L11520,98L11520,490L11440,490C11360,490,11200,490,11040,490C10880,490,10720,490,10560,490C10400,490,10240,490,10080,490C9920,490,9760,490,9600,490C9440,490,9280,490,9120,490C8960,490,8800,490,8640,490C8480,490,8320,490,8160,490C8000,490,7840,490,7680,490C7520,490,7360,490,7200,490C7040,490,6880,490,6720,490C6560,490,6400,490,6240,490C6080,490,5920,490,5760,490C5600,490,5440,490,5280,490C5120,490,4960,490,4800,490C4640,490,4480,490,4320,490C4160,490,4000,490,3840,490C3680,490,3520,490,3360,490C3200,490,3040,490,2880,490C2720,490,2560,490,2400,490C2240,490,2080,490,1920,490C1760,490,1600,490,1440,490C1280,490,1120,490,960,490C800,490,640,490,480,490C320,490,160,490,80,490L0,490Z">
    </path>
</svg>